<?xml version="1.0" encoding="UTF-8" standalone="no"?>
<!-- Generator: Adobe Illustrator 19.2.1, SVG Export Plug-In . SVG Version: 6.00 Build 0)  -->

<svg
   xmlns:dc="http://purl.org/dc/elements/1.1/"
   xmlns:cc="http://creativecommons.org/ns#"
   xmlns:rdf="http://www.w3.org/1999/02/22-rdf-syntax-ns#"
   xmlns:svg="http://www.w3.org/2000/svg"
   xmlns="http://www.w3.org/2000/svg"
   xmlns:sodipodi="http://sodipodi.sourceforge.net/DTD/sodipodi-0.dtd"
   xmlns:inkscape="http://www.inkscape.org/namespaces/inkscape"
   version="1.1"
   id="Layer_1"
   x="0px"
   y="0px"
   viewBox="0 0 595.3 841.9"
   style="enable-background:new 0 0 595.3 841.9;"
   xml:space="preserve"
   sodipodi:docname="win98_02.svg"
   inkscape:version="0.92.1 r15371"><metadata
     id="metadata5896"><rdf:RDF><cc:Work
         rdf:about=""><dc:format>image/svg+xml</dc:format><dc:type
           rdf:resource="http://purl.org/dc/dcmitype/StillImage" /></cc:Work></rdf:RDF></metadata><defs
     id="defs5894" /><sodipodi:namedview
     pagecolor="#ffffff"
     bordercolor="#666666"
     borderopacity="1"
     objecttolerance="10"
     gridtolerance="10"
     guidetolerance="10"
     inkscape:pageopacity="0"
     inkscape:pageshadow="2"
     inkscape:window-width="1397"
     inkscape:window-height="876"
     id="namedview5892"
     showgrid="false"
     inkscape:zoom="1.1212733"
     inkscape:cx="202.48564"
     inkscape:cy="393.11314"
     inkscape:window-x="315"
     inkscape:window-y="46"
     inkscape:window-maximized="0"
     inkscape:current-layer="g7958" /><style
     type="text/css"
     id="style5795">
	.st0{fill-rule:evenodd;clip-rule:evenodd;fill:#A8CD81;}
	.st1{fill-rule:evenodd;clip-rule:evenodd;fill:#FCDA1B;}
	.st2{fill-rule:evenodd;clip-rule:evenodd;fill:#EF7065;}
	.st3{fill-rule:evenodd;clip-rule:evenodd;fill:#6EADD6;}
	.st4{fill-rule:evenodd;clip-rule:evenodd;fill:#000100;}
</style><g
     id="g7958"><polygon
       id="polygon5797"
       points="453.8,297.8 453.8,397 392.5,397 392.5,297.8 "
       class="st0"
       style="clip-rule:evenodd;fill:#a8cd81;fill-rule:evenodd" /><polygon
       id="polygon5799"
       points="453.8,398.9 453.8,498.1 392.5,498.1 392.5,398.9 "
       class="st1"
       style="clip-rule:evenodd;fill:#fcda1b;fill-rule:evenodd" /><polygon
       id="polygon5801"
       points="379.3,300.4 379.3,399.5 318,399.5 318,300.4 "
       class="st2"
       style="clip-rule:evenodd;fill:#ef7065;fill-rule:evenodd" /><polygon
       id="polygon5803"
       points="379.3,401.4 379.3,499.9 318,499.9 318,401.4 "
       class="st3"
       style="clip-rule:evenodd;fill:#6eadd6;fill-rule:evenodd" /><path
       id="path5805"
       d="m 450.6,386.2 c -13.5,-4.2 -30.8,-7.7 -51.2,-7.7 -1.3,0.1 -2.6,0 -3.8,0 v -77 c 1.5,-0.3 2.9,-0.3 4.4,0 20.1,-0.3 37.2,3.1 50.5,6.9 v 77.8 h 0.1 z m 0,102.4 c -13.5,-3.9 -30.8,-7.4 -51.2,-7.6 -1.3,0.2 -2.6,0.2 -3.8,0 v -79 c 1.5,-0.1 2.9,-0.2 4.4,0 20.1,-0.2 37.2,3.2 50.5,7.6 v 79 h 0.1 z m 32.9,-199 c 0,0 -31.5,-21.2 -82.7,-21.5 -51.4,0.3 -82.9,17 -82.7,17 v 34.8 c -0.2,-0.2 20.2,-12.4 55.6,-17.1 v 77.7 c -35.6,4.4 -55.7,17.2 -55.7,17.1 l 0.1,24 c 0,0 19.9,-13.6 55.6,-18.3 v 80.2 c -29.4,3.3 -49,11.2 -55.6,14.5 v 33.5 c 8.3,-4 37.3,-15.7 80.2,-15.7 51.3,-0.1 82.8,20.4 82.8,20.1 l 2.4,-246.3 z"
       class="st4"
       inkscape:connector-curvature="0"
       style="clip-rule:evenodd;fill:#000100;fill-rule:evenodd" /><polygon
       id="polygon5807"
       points="314.2,287.1 314.2,321.2 282,335.1 282,301 "
       class="st4"
       style="clip-rule:evenodd;fill:#000100;fill-rule:evenodd" /><polygon
       id="polygon5809"
       points="314.2,498.7 314.2,532.2 282,546.7 282,512.6 "
       class="st4"
       style="clip-rule:evenodd;fill:#000100;fill-rule:evenodd" /><polygon
       id="polygon5811"
       points="314.2,463.9 314.2,494.9 282,508.8 282,477.8 "
       class="st4"
       style="clip-rule:evenodd;fill:#000100;fill-rule:evenodd" /><polygon
       id="polygon5813"
       points="314.2,325 314.2,355.9 282,369.8 282,338.9 "
       class="st4"
       style="clip-rule:evenodd;fill:#000100;fill-rule:evenodd" /><polygon
       id="polygon5815"
       points="314.2,394.5 314.2,425.4 282,439.3 282,408.4 "
       class="st4"
       style="clip-rule:evenodd;fill:#000100;fill-rule:evenodd" /><polygon
       id="polygon5817"
       points="314.2,429.2 314.2,460.1 282,474 282,443.1 "
       class="st4"
       style="clip-rule:evenodd;fill:#000100;fill-rule:evenodd" /><polygon
       id="polygon5819"
       points="314.2,359.7 314.2,390.7 282,404.6 282,373.6 "
       class="st4"
       style="clip-rule:evenodd;fill:#000100;fill-rule:evenodd" /><polygon
       id="polygon5821"
       points="277.6,297.8 277.6,325 246.6,338.2 246.6,311.7 "
       class="st4"
       style="clip-rule:evenodd;fill:#000100;fill-rule:evenodd" /><polygon
       id="polygon5823"
       points="145.6,288.4 145.6,299.7 132.9,305.4 132.9,294 "
       class="st4"
       style="clip-rule:evenodd;fill:#000100;fill-rule:evenodd" /><polygon
       id="polygon5825"
       points="241.6,302.2 241.6,323.1 214.4,335.1 214.4,314.2 "
       class="st4"
       style="clip-rule:evenodd;fill:#000100;fill-rule:evenodd" /><polygon
       id="polygon5827"
       points="207.5,302.2 207.5,318 185.3,327.5 185.3,311.7 "
       class="st4"
       style="clip-rule:evenodd;fill:#000100;fill-rule:evenodd" /><polygon
       id="polygon5829"
       points="177.1,295.3 177.1,307.3 158.8,315.5 158.8,302.9 "
       class="st4"
       style="clip-rule:evenodd;fill:#000100;fill-rule:evenodd" /><polygon
       id="polygon5831"
       points="277.6,404.6 277.6,431.1 246.6,444.4 246.6,417.8 "
       class="st4"
       style="clip-rule:evenodd;fill:#000100;fill-rule:evenodd" /><polygon
       id="polygon5833"
       points="145.6,394.5 145.6,406.5 132.9,411.5 132.9,400.1 "
       class="st4"
       style="clip-rule:evenodd;fill:#000100;fill-rule:evenodd" /><polygon
       id="polygon5835"
       points="241.6,408.4 241.6,429.2 214.4,441.2 214.4,420.4 "
       class="st4"
       style="clip-rule:evenodd;fill:#000100;fill-rule:evenodd" /><polygon
       id="polygon5837"
       points="207.5,408.4 207.5,424.1 185.3,433.6 185.3,417.8 "
       class="st4"
       style="clip-rule:evenodd;fill:#000100;fill-rule:evenodd" /><polygon
       id="polygon5839"
       points="177.1,401.4 177.1,413.4 158.8,421.6 158.8,409.6 "
       class="st4"
       style="clip-rule:evenodd;fill:#000100;fill-rule:evenodd" /><polygon
       id="polygon5841"
       points="277.6,509.4 277.6,536 246.6,549.8 246.6,523.3 "
       class="st4"
       style="clip-rule:evenodd;fill:#000100;fill-rule:evenodd" /><polygon
       id="polygon5843"
       points="145.6,499.9 145.6,511.3 132.9,517 132.9,505 "
       class="st4"
       style="clip-rule:evenodd;fill:#000100;fill-rule:evenodd" /><polygon
       id="polygon5845"
       points="241.6,513.8 241.6,534.1 214.4,546.1 214.4,525.8 "
       class="st4"
       style="clip-rule:evenodd;fill:#000100;fill-rule:evenodd" /><polygon
       id="polygon5847"
       points="207.5,513.8 207.5,529 185.3,538.5 185.3,523.3 "
       class="st4"
       style="clip-rule:evenodd;fill:#000100;fill-rule:evenodd" /><polygon
       id="polygon5849"
       points="177.1,506.9 177.1,518.9 158.8,526.5 158.8,514.5 "
       class="st4"
       style="clip-rule:evenodd;fill:#000100;fill-rule:evenodd" /><polygon
       id="polygon5851"
       points="175.2,331.3 175.2,342.7 162,349 162,337.6 "
       class="st2"
       style="clip-rule:evenodd;fill:#ef7065;fill-rule:evenodd" /><polygon
       id="polygon5853"
       points="275.7,337.6 275.7,359.1 250.4,370.5 250.4,348.3 "
       class="st2"
       style="clip-rule:evenodd;fill:#ef7065;fill-rule:evenodd" /><polygon
       id="polygon5855"
       points="240.3,338.9 240.3,357.2 217.6,367.3 217.6,349 "
       class="st2"
       style="clip-rule:evenodd;fill:#ef7065;fill-rule:evenodd" /><polygon
       id="polygon5857"
       points="206.2,339.5 206.2,353.4 188.5,361 188.5,347.1 "
       class="st2"
       style="clip-rule:evenodd;fill:#ef7065;fill-rule:evenodd" /><polygon
       id="polygon5859"
       points="143.7,324.3 143.7,333.8 133.5,338.2 133.5,328.8 "
       class="st2"
       style="clip-rule:evenodd;fill:#ef7065;fill-rule:evenodd" /><polygon
       id="polygon5861"
       points="175.2,366 175.2,377.4 162,383.7 162,372.3 "
       class="st2"
       style="clip-rule:evenodd;fill:#ef7065;fill-rule:evenodd" /><polygon
       id="polygon5863"
       points="275.7,371.7 275.7,393.8 250.4,405.2 250.4,383.1 "
       class="st2"
       style="clip-rule:evenodd;fill:#ef7065;fill-rule:evenodd" /><polygon
       id="polygon5865"
       points="240.3,373.6 240.3,391.9 217.6,401.4 217.6,383.7 "
       class="st2"
       style="clip-rule:evenodd;fill:#ef7065;fill-rule:evenodd" /><polygon
       id="polygon5867"
       points="206.2,374.2 206.2,387.5 188.5,395.7 188.5,381.8 "
       class="st2"
       style="clip-rule:evenodd;fill:#ef7065;fill-rule:evenodd" /><polygon
       id="polygon5869"
       points="143.7,358.4 143.7,368.6 133.5,373 133.5,362.9 "
       class="st2"
       style="clip-rule:evenodd;fill:#ef7065;fill-rule:evenodd" /><polygon
       id="polygon5871"
       points="175.2,438 175.2,449.4 162,455.1 162,443.7 "
       class="st3"
       style="clip-rule:evenodd;fill:#6eadd6;fill-rule:evenodd" /><polygon
       id="polygon5873"
       points="275.7,443.7 275.7,465.8 250.4,477.2 250.4,455.1 "
       class="st3"
       style="clip-rule:evenodd;fill:#6eadd6;fill-rule:evenodd" /><polygon
       id="polygon5875"
       points="240.3,445.6 240.3,463.3 217.6,473.4 217.6,455.1 "
       class="st3"
       style="clip-rule:evenodd;fill:#6eadd6;fill-rule:evenodd" /><polygon
       id="polygon5877"
       points="206.2,446.3 206.2,459.5 188.5,467.1 188.5,453.8 "
       class="st3"
       style="clip-rule:evenodd;fill:#6eadd6;fill-rule:evenodd" /><polygon
       id="polygon5879"
       points="143.7,430.5 143.7,440.6 133.5,445 133.5,434.9 "
       class="st3"
       style="clip-rule:evenodd;fill:#6eadd6;fill-rule:evenodd" /><polygon
       id="polygon5881"
       points="175.2,472.8 175.2,484.2 162,489.8 162,478.5 "
       class="st3"
       style="clip-rule:evenodd;fill:#6eadd6;fill-rule:evenodd" /><polygon
       id="polygon5883"
       points="275.7,478.5 275.7,500.6 250.4,511.3 250.4,489.8 "
       class="st3"
       style="clip-rule:evenodd;fill:#6eadd6;fill-rule:evenodd" /><polygon
       id="polygon5885"
       points="240.3,479.7 240.3,498.1 217.6,508.2 217.6,489.8 "
       class="st3"
       style="clip-rule:evenodd;fill:#6eadd6;fill-rule:evenodd" /><polygon
       id="polygon5887"
       points="206.2,480.4 206.2,494.3 188.5,501.8 188.5,488.6 "
       class="st3"
       style="clip-rule:evenodd;fill:#6eadd6;fill-rule:evenodd" /><polygon
       id="polygon5889"
       points="143.7,465.2 143.7,474.7 133.5,479.1 133.5,469.6 "
       class="st3"
       style="clip-rule:evenodd;fill:#6eadd6;fill-rule:evenodd" /></g></svg>